<svg xmlns="http://www.w3.org/2000/svg" xmlns:xlink="http://www.w3.org/1999/xlink" width="1080" zoomAndPan="magnify" viewBox="0 0 810 809.999993" height="1080" preserveAspectRatio="xMidYMid meet" version="1.0"><path fill="#ffbc5e" d="M 200.667969 725.398438 L 324.511719 725.398438 L 324.511719 742.628906 L 200.667969 742.628906 Z M 200.667969 725.398438 " fill-opacity="1" fill-rule="nonzero"/><path fill="#ffbc5e" d="M 485.488281 725.398438 L 609.332031 725.398438 L 609.332031 742.628906 L 485.488281 742.628906 Z M 485.488281 725.398438 " fill-opacity="1" fill-rule="nonzero"/><path fill="#ffbc5e" d="M 698.121094 657.363281 C 690.53125 640.898438 679.742188 627.648438 667.46875 617.09375 C 642.851562 595.992188 612.609375 585.339844 587.027344 577.9375 C 570 573.050781 554.8125 569.585938 545.371094 566.234375 C 541.046875 564.734375 537.292969 564.210938 534.15625 563.585938 C 533.394531 563.449219 532.84375 563.285156 532.167969 563.148438 L 525.890625 534.632812 C 522.941406 521.390625 512.363281 511.503906 499.390625 509.152344 C 499.390625 503.101562 499.390625 496.414062 499.390625 489.0625 C 514.839844 471.859375 537.070312 445.203125 546.207031 402.933594 C 549.386719 401.484375 552.535156 399.871094 555.585938 397.746094 C 560.597656 394.285156 565.175781 389.730469 569.214844 384.058594 C 577.3125 372.644531 583.554688 357.078125 590.480469 332.972656 C 593.078125 323.808594 594.304688 315.832031 594.304688 308.746094 C 594.328125 300.554688 592.628906 293.441406 589.53125 287.691406 C 588.730469 286.179688 587.65625 285.078125 586.71875 283.789062 L 586.71875 267.886719 L 588.503906 267.886719 L 588.503906 257.359375 C 615.59375 177.695312 617.308594 73.871094 495.691406 41.324219 C 337.265625 -65.890625 252.140625 68.003906 241.25 79.730469 C 199.644531 124.539062 185.242188 175.746094 199.644531 233.355469 C 208.105469 267.222656 215.058594 278.539062 223.296875 283.6875 L 223.296875 283.789062 C 222.332031 285.074219 221.257812 286.175781 220.460938 287.6875 C 217.371094 293.441406 215.695312 300.554688 215.695312 308.742188 C 215.707031 315.832031 216.90625 323.808594 219.535156 332.972656 C 226.433594 357.074219 232.675781 372.640625 240.773438 384.054688 C 244.824219 389.730469 249.425781 394.28125 254.425781 397.746094 C 257.453125 399.871094 260.601562 401.484375 263.800781 402.933594 C 272.929688 445.203125 295.144531 471.855469 310.609375 489.058594 C 310.609375 496.410156 310.609375 503.101562 310.609375 509.148438 C 297.648438 511.5 287.054688 521.390625 284.132812 534.628906 L 277.820312 563.144531 C 277.15625 563.285156 276.59375 563.445312 275.855469 563.585938 C 272.703125 564.210938 268.941406 564.734375 264.628906 566.234375 C 255.203125 569.585938 240 573.046875 222.984375 577.9375 C 197.390625 585.335938 167.136719 595.988281 142.53125 617.09375 C 130.257812 627.644531 119.453125 640.898438 111.890625 657.363281 C 104.277344 673.8125 99.949219 693.367188 99.949219 716.246094 C 99.949219 721.558594 100.175781 727.058594 100.652344 732.75 C 101.027344 736.726562 102.527344 739.960938 104.300781 742.625 C 107.679688 747.585938 112.179688 751.300781 117.804688 755.089844 C 127.644531 761.613281 141.296875 767.992188 158.773438 774.242188 C 211.082031 792.898438 297.683594 809.976562 405 810 C 512.304688 809.976562 598.90625 792.898438 651.214844 774.246094 C 668.691406 767.992188 682.34375 761.617188 692.195312 755.09375 C 697.820312 751.304688 702.3125 747.589844 705.722656 742.628906 C 707.484375 739.964844 709 736.726562 709.335938 732.753906 C 709.824219 727.0625 710.050781 721.5625 710.050781 716.25 C 710.074219 693.371094 705.722656 673.816406 698.121094 657.363281 Z M 502.753906 539.746094 L 511.753906 580.527344 L 533.085938 676.980469 L 448.683594 665.828125 L 416.714844 700.171875 L 416.839844 674.828125 L 416.003906 674.828125 L 493.265625 578.578125 L 493.214844 575.453125 C 493.214844 575.425781 493.066406 568.714844 492.941406 560.1875 C 492.816406 551.671875 492.664062 541.359375 492.664062 534.332031 C 492.664062 533.609375 492.664062 532.957031 492.691406 532.28125 L 493.464844 532.28125 C 497.914062 532.28125 501.789062 535.394531 502.753906 539.746094 Z M 285.632812 392.285156 L 284.433594 385.496094 L 277.953125 383.183594 C 273.839844 381.710938 270.675781 380.210938 267.953125 378.308594 C 263.890625 375.445312 260.226562 371.542969 255.9375 363.558594 C 251.714844 355.605469 247.214844 343.71875 242.3125 326.476562 C 240.148438 318.949219 239.386719 313.097656 239.386719 308.746094 C 239.386719 303.683594 240.347656 300.722656 241.347656 298.871094 C 242.523438 296.722656 244 295.648438 245.671875 294.796875 C 260.152344 306.199219 273.253906 326.175781 273.253906 326.175781 C 273.253906 326.175781 270.054688 281.269531 270.054688 257.367188 C 284.457031 153.351562 391.671875 222.160156 431.679688 146.949219 C 431.679688 146.949219 444.53125 170.816406 476.484375 183.753906 C 543.695312 210.960938 537.292969 306.972656 537.292969 306.972656 C 537.292969 306.972656 531.519531 340.679688 557.460938 293.234375 L 558.359375 293.121094 C 559.160156 293.160156 561.121094 293.347656 563 294.058594 C 565.324219 294.996094 567.148438 296.148438 568.648438 298.875 C 569.636719 300.722656 570.601562 303.6875 570.625 308.75 C 570.625 313.101562 569.847656 318.949219 567.699219 326.476562 C 562.773438 343.71875 558.296875 355.605469 554.074219 363.558594 C 549.785156 371.546875 546.097656 375.449219 542.070312 378.308594 C 539.308594 380.210938 536.171875 381.710938 532.046875 383.183594 L 525.566406 385.5 L 524.367188 392.285156 C 516.78125 434.71875 494.914062 458.609375 478.761719 476.597656 L 475.710938 479.972656 L 475.710938 484.527344 C 475.710938 497.902344 475.710938 509.03125 475.710938 518.554688 L 475.710938 518.929688 L 475.761719 520.441406 L 475.5 520.441406 C 475.5 526.167969 475.433594 529.46875 475.433594 534.332031 C 475.433594 545.792969 475.761719 565.160156 475.910156 572.648438 L 452.59375 601.691406 C 439.480469 609.167969 423.039062 613.78125 405 613.769531 C 386.972656 613.78125 370.519531 609.167969 357.390625 601.691406 L 334.089844 572.648438 C 334.226562 565.160156 334.5625 545.792969 334.5625 534.332031 C 334.5625 529.46875 334.488281 526.167969 334.488281 520.441406 L 334.238281 520.441406 L 334.289062 518.929688 L 334.289062 518.554688 C 334.289062 509.027344 334.289062 497.902344 334.289062 484.527344 L 334.289062 479.972656 L 331.261719 476.597656 C 315.109375 458.605469 293.207031 434.71875 285.632812 392.285156 Z M 298.234375 580.527344 L 307.261719 539.746094 C 308.210938 535.394531 312.097656 532.28125 316.5625 532.28125 L 317.335938 532.28125 C 317.335938 532.953125 317.335938 533.605469 317.335938 534.332031 C 317.335938 541.359375 317.210938 551.671875 317.0625 560.1875 C 316.933594 568.710938 316.8125 575.425781 316.8125 575.449219 L 316.746094 578.574219 L 394 674.828125 L 393.171875 674.828125 L 393.273438 700.167969 L 361.34375 665.828125 L 276.90625 676.976562 Z M 685.769531 729.738281 C 685.46875 730.175781 684.832031 730.914062 683.71875 731.890625 C 681.09375 734.226562 676.34375 737.375 669.878906 740.691406 C 656.9375 747.367188 637.210938 754.816406 612.121094 761.605469 C 561.898438 775.207031 490.113281 786.320312 405 786.320312 C 319.898438 786.320312 248.125 775.207031 197.894531 761.605469 C 172.800781 754.816406 153.074219 747.367188 140.109375 740.691406 C 133.65625 737.375 128.90625 734.226562 126.308594 731.890625 C 125.160156 730.914062 124.53125 730.175781 124.21875 729.738281 C 123.855469 725.074219 123.65625 720.546875 123.65625 716.246094 C 123.695312 689.667969 130.183594 670.25 140.222656 655.027344 C 155.261719 632.269531 179.390625 618.34375 204.582031 608.855469 C 217.144531 604.117188 229.820312 600.519531 241.476562 597.40625 C 253.023438 594.292969 263.453125 591.730469 272.179688 588.679688 L 246.476562 704.882812 L 352.316406 690.917969 L 405 747.515625 L 457.707031 690.917969 L 563.523438 704.882812 L 537.832031 588.679688 C 546.574219 591.730469 557 594.292969 568.527344 597.40625 C 580.179688 600.519531 592.878906 604.117188 605.433594 608.855469 C 630.636719 618.34375 654.753906 632.269531 669.765625 655.027344 C 679.816406 670.253906 686.320312 689.667969 686.367188 716.246094 C 686.367188 720.546875 686.15625 725.074219 685.769531 729.738281 Z M 685.769531 729.738281 " fill-opacity="1" fill-rule="nonzero"/></svg>